<?xml version="1.0" standalone="no"?>
<!DOCTYPE svg PUBLIC "-//W3C//DTD SVG 20010904//EN"
 "http://www.w3.org/TR/2001/REC-SVG-20010904/DTD/svg10.dtd">
<svg version="1.0" xmlns="http://www.w3.org/2000/svg"
 width="180.000000pt" height="180.000000pt" viewBox="0 0 180.000000 180.000000"
 preserveAspectRatio="xMidYMid meet">
<metadata>
Created by potrace 1.14, written by Peter Selinger 2001-2017
</metadata>
<g transform="translate(0.000000,180.000000) scale(0.100000,-0.100000)"
fill="#000000" stroke="none">
<path d="M609 1357 c-1 -243 -3 -434 -6 -424 -4 13 -43 26 -43 14 0 -2 11 -37
25 -77 24 -71 25 -82 25 -342 l0 -268 35 0 35 0 0 243 0 243 35 98 c19 54 35
100 35 102 0 2 -8 4 -18 4 -13 0 -23 -14 -34 -47 l-16 -48 -1 101 -1 101 415
178 c229 98 414 179 413 180 -4 4 -836 361 -872 375 l-26 10 -1 -443z"/>
<path d="M320 870 l0 -140 110 0 c101 0 129 7 99 26 -6 4 -47 6 -90 5 -76 -2
-79 -1 -80 21 0 13 -2 35 -3 51 l-2 27 84 0 c62 0 83 3 80 13 -3 8 -31 13 -80
15 -82 3 -89 9 -80 70 3 21 8 22 88 22 68 0 84 3 84 15 0 12 -18 15 -105 15
l-105 0 0 -140z"/>
<path d="M1239 978 c-7 -13 -19 -28 -28 -35 -14 -11 -14 -12 2 -13 15 0 17
-11 17 -89 0 -96 9 -115 51 -109 29 4 37 28 10 28 -12 0 -21 6 -22 13 -9 111
3 169 32 152 5 -4 6 1 3 9 -3 9 -14 16 -24 16 -13 0 -18 6 -15 20 6 29 -12 34
-26 8z"/>
<path d="M818 939 c-58 -33 -60 -156 -3 -193 33 -22 85 -20 115 4 18 14 22 22
14 30 -8 8 -15 7 -27 -4 -34 -34 -107 -8 -107 37 0 14 12 17 76 17 l76 0 -6
38 c-12 66 -84 103 -138 71z m90 -37 c25 -32 14 -42 -43 -42 -57 0 -67 9 -42
41 23 31 60 31 85 1z"/>
<path d="M1008 943 c-2 -5 -4 -53 -4 -108 1 -87 3 -100 19 -103 15 -3 17 5 17
70 0 83 16 118 54 118 23 0 48 -20 45 -36 -1 -5 -1 -42 0 -81 1 -55 4 -73 15
-73 20 0 23 15 20 104 -4 96 -20 121 -74 112 -19 -3 -41 -13 -47 -23 -12 -15
-13 -15 -13 5 0 21 -24 31 -32 15z"/>
<path d="M1351 929 c-11 -13 -21 -31 -21 -40 0 -24 42 -55 85 -63 59 -11 66
-59 10 -67 -26 -4 -65 10 -65 22 0 5 -7 9 -15 9 -22 0 -18 -27 7 -44 45 -32
133 -13 144 31 10 37 -17 67 -75 82 -44 11 -52 16 -49 35 4 27 66 36 83 13 7
-11 16 -13 26 -7 24 15 -13 42 -64 47 -37 4 -48 1 -66 -18z"/>
<path d="M753 574 c-9 -4 -13 -35 -13 -105 0 -99 0 -101 30 -126 74 -62 3
-145 -125 -146 -105 -2 -179 55 -155 117 5 15 21 31 35 38 24 11 25 15 25 100
0 64 -3 88 -13 88 -29 0 -157 -42 -216 -71 -81 -40 -147 -105 -156 -152 -24
-128 130 -232 436 -294 123 -25 479 -24 604 1 369 75 525 226 381 371 -72 71
-204 125 -398 161 -80 15 -410 28 -435 18z m475 -210 c22 -15 29 -49 14 -70
-27 -41 -121 -46 -157 -9 -32 31 -31 48 1 74 33 26 109 28 142 5z"/>
</g>
</svg>
